<svg xmlns="http://www.w3.org/2000/svg" width="430" height="170" viewBox="0 0 430 170"><rect width="100%" height="100%" fill="#FFFFFF"/><line x1="120" y1="40" x2="200" y2="40" stroke="#C850C0" stroke-width="2" stroke-dasharray="6,3"/><rect x="155" y="35" width="10" height="10" fill="#DDA0DD" stroke="#C850C0"/><line x1="200" y1="40" x2="280" y2="40" stroke="#444444" stroke-width="2"/><line x1="120" y1="100" x2="280" y2="100" stroke="#444444" stroke-width="2"/><line x1="280" y1="100" x2="360" y2="100" stroke="#444444" stroke-width="2"/><line x1="280" y1="100" x2="280" y2="40" stroke="#444444" stroke-width="2"/><line x1="280" y1="40" x2="360" y2="40" stroke="#444444" stroke-width="2"/><circle cx="120" cy="40" r="5" fill="#333333" stroke="#000000"/><text x="120" y="59" font-size="9.600000000000001" fill="#666666" text-anchor="middle" font-family="monospace">in[0]</text><circle cx="200" cy="40" r="15" fill="#6495ED" stroke="#1E3A8A" stroke-width="1.5"/><circle cx="120" cy="100" r="5" fill="#333333" stroke="#000000"/><text x="120" y="119" font-size="9.600000000000001" fill="#666666" text-anchor="middle" font-family="monospace">in[1]</text><circle cx="280" cy="100" r="15" fill="#FF6B6B" stroke="#8B0000" stroke-width="1.5"/><circle cx="280" cy="40" r="15" fill="#6495ED" stroke="#1E3A8A" stroke-width="1.5"/><circle cx="360" cy="40" r="5" fill="#333333" stroke="#000000"/><text x="360" y="59" font-size="9.600000000000001" fill="#666666" text-anchor="middle" font-family="monospace">out[0]</text><circle cx="360" cy="100" r="5" fill="#333333" stroke="#000000"/><text x="360" y="119" font-size="9.600000000000001" fill="#666666" text-anchor="middle" font-family="monospace">out[1]</text></svg>
