<svg xmlns="http://www.w3.org/2000/svg" width="420.859799207698" height="470.2804150804176" viewBox="0 0 420.859799207698 470.2804150804176"><rect width="100%" height="100%" fill="#FFFFFF"/><line x1="40" y1="94.95272546141854" x2="146.2498013020999" y2="126.68146832941707" stroke="#444444" stroke-width="2"/><line x1="146.2498013020999" y1="126.68146832941707" x2="203.32663277419812" y2="40" stroke="#444444" stroke-width="2"/><line x1="146.2498013020999" y1="126.68146832941707" x2="190.76832203259187" y2="179.45457910373048" stroke="#444444" stroke-width="2"/><line x1="146.2498013020999" y1="126.68146832941707" x2="244.60999790559802" y2="313.5989467510004" stroke="#444444" stroke-width="2"/><line x1="313.0674406090061" y1="113.8844372390372" x2="190.76832203259187" y2="179.45457910373048" stroke="#444444" stroke-width="2"/><line x1="190.76832203259187" y1="179.45457910373048" x2="103.8656140565619" y2="234.6063350501769" stroke="#444444" stroke-width="2"/><line x1="190.76832203259187" y1="179.45457910373048" x2="200.09147717510592" y2="260.825835976687" stroke="#444444" stroke-width="2"/><line x1="286.99418515113587" y1="205.6740800302406" x2="200.09147717510592" y2="260.825835976687" stroke="#444444" stroke-width="2"/><line x1="200.09147717510592" y1="260.825835976687" x2="77.79235859869172" y2="326.3959778413804" stroke="#444444" stroke-width="2"/><line x1="200.09147717510592" y1="260.825835976687" x2="244.60999790559802" y2="313.5989467510004" stroke="#444444" stroke-width="2"/><line x1="187.5331664334998" y1="400.2804150804176" x2="244.60999790559802" y2="313.5989467510004" stroke="#444444" stroke-width="2"/><line x1="244.60999790559802" y1="313.5989467510004" x2="350.859799207698" y2="345.3276896189989" stroke="#444444" stroke-width="2"/><circle cx="40" cy="94.95272546141854" r="5" fill="#333333" stroke="#000000"/><text x="40" y="113.95272546141854" font-size="9.600000000000001" fill="#666666" text-anchor="middle" font-family="monospace">in[0]</text><circle cx="146.2498013020999" cy="126.68146832941707" r="15" fill="#6495ED" stroke="#1E3A8A" stroke-width="1.5"/><circle cx="203.32663277419812" cy="40" r="5" fill="#333333" stroke="#000000"/><text x="203.32663277419812" y="59" font-size="9.600000000000001" fill="#666666" text-anchor="middle" font-family="monospace">out[0]</text><circle cx="313.0674406090061" cy="113.8844372390372" r="5" fill="#333333" stroke="#000000"/><text x="313.0674406090061" y="132.8844372390372" font-size="9.600000000000001" fill="#666666" text-anchor="middle" font-family="monospace">in[1]</text><circle cx="190.76832203259187" cy="179.45457910373048" r="15" fill="#6495ED" stroke="#1E3A8A" stroke-width="1.5"/><circle cx="103.8656140565619" cy="234.6063350501769" r="5" fill="#333333" stroke="#000000"/><text x="103.8656140565619" y="253.6063350501769" font-size="9.600000000000001" fill="#666666" text-anchor="middle" font-family="monospace">out[1]</text><circle cx="286.99418515113587" cy="205.6740800302406" r="5" fill="#333333" stroke="#000000"/><text x="286.99418515113587" y="224.6740800302406" font-size="9.600000000000001" fill="#666666" text-anchor="middle" font-family="monospace">in[2]</text><circle cx="200.09147717510592" cy="260.825835976687" r="15" fill="#6495ED" stroke="#1E3A8A" stroke-width="1.5"/><circle cx="77.79235859869172" cy="326.3959778413804" r="5" fill="#333333" stroke="#000000"/><text x="77.79235859869172" y="345.3959778413804" font-size="9.600000000000001" fill="#666666" text-anchor="middle" font-family="monospace">out[2]</text><circle cx="187.5331664334998" cy="400.2804150804176" r="5" fill="#333333" stroke="#000000"/><text x="187.5331664334998" y="419.2804150804176" font-size="9.600000000000001" fill="#666666" text-anchor="middle" font-family="monospace">in[3]</text><circle cx="244.60999790559802" cy="313.5989467510004" r="15" fill="#6495ED" stroke="#1E3A8A" stroke-width="1.5"/><circle cx="350.859799207698" cy="345.3276896189989" r="5" fill="#333333" stroke="#000000"/><text x="350.859799207698" y="364.3276896189989" font-size="9.600000000000001" fill="#666666" text-anchor="middle" font-family="monospace">out[3]</text></svg>
