<svg xmlns="http://www.w3.org/2000/svg" width="750" height="470" viewBox="0 0 750 470"><rect width="100%" height="100%" fill="#FFFFFF"/><line x1="120" y1="40" x2="200" y2="40" stroke="#444444" stroke-width="2"/><line x1="200" y1="40" x2="280" y2="40" stroke="#444444" stroke-width="2"/><line x1="200" y1="40" x2="200" y2="220" stroke="#444444" stroke-width="2"/><line x1="120" y1="100" x2="280" y2="100" stroke="#444444" stroke-width="2"/><line x1="280" y1="100" x2="360" y2="100" stroke="#444444" stroke-width="2"/><line x1="280" y1="100" x2="280" y2="220" stroke="#444444" stroke-width="2"/><line x1="120" y1="160" x2="440" y2="160" stroke="#444444" stroke-width="2"/><line x1="440" y1="160" x2="600" y2="160" stroke="#444444" stroke-width="2"/><line x1="440" y1="160" x2="440" y2="280" stroke="#444444" stroke-width="2"/><line x1="120" y1="220" x2="200" y2="220" stroke="#444444" stroke-width="2"/><line x1="200" y1="220" x2="280" y2="220" stroke="#444444" stroke-width="2"/><line x1="120" y1="280" x2="360" y2="280" stroke="#444444" stroke-width="2"/><line x1="360" y1="280" x2="440" y2="280" stroke="#444444" stroke-width="2"/><line x1="360" y1="280" x2="360" y2="100" stroke="#444444" stroke-width="2"/><line x1="120" y1="340" x2="280" y2="340" stroke="#444444" stroke-width="2"/><line x1="280" y1="340" x2="440" y2="340" stroke="#444444" stroke-width="2"/><line x1="280" y1="340" x2="280" y2="40" stroke="#444444" stroke-width="2"/><line x1="120" y1="400" x2="520" y2="400" stroke="#444444" stroke-width="2"/><line x1="520" y1="400" x2="600" y2="400" stroke="#444444" stroke-width="2"/><line x1="520" y1="400" x2="520" y2="100" stroke="#444444" stroke-width="2"/><line x1="280" y1="40" x2="680" y2="40" stroke="#444444" stroke-width="2"/><line x1="280" y1="220" x2="360" y2="220" stroke="#444444" stroke-width="2"/><line x1="440" y1="340" x2="520" y2="340" stroke="#444444" stroke-width="2"/><line x1="440" y1="340" x2="440" y2="100" stroke="#444444" stroke-width="2"/><line x1="360" y1="100" x2="440" y2="100" stroke="#444444" stroke-width="2"/><line x1="440" y1="100" x2="520" y2="100" stroke="#444444" stroke-width="2"/><line x1="440" y1="280" x2="520" y2="280" stroke="#444444" stroke-width="2"/><line x1="520" y1="100" x2="680" y2="100" stroke="#444444" stroke-width="2"/><line x1="600" y1="400" x2="680" y2="400" stroke="#444444" stroke-width="2"/><line x1="600" y1="400" x2="600" y2="160" stroke="#444444" stroke-width="2"/><line x1="600" y1="160" x2="680" y2="160" stroke="#444444" stroke-width="2"/><line x1="440" y1="160" x2="440" y2="280" stroke="rgba(255, 0, 0, 0.4)" stroke-width="6" stroke-linecap="round"/><line x1="360" y1="280" x2="360" y2="100" stroke="rgba(255, 0, 0, 0.4)" stroke-width="6" stroke-linecap="round"/><line x1="600" y1="400" x2="600" y2="160" stroke="rgba(255, 0, 0, 0.4)" stroke-width="6" stroke-linecap="round"/><line x1="520" y1="400" x2="520" y2="100" stroke="rgba(255, 0, 0, 0.4)" stroke-width="6" stroke-linecap="round"/><line x1="280" y1="340" x2="280" y2="40" stroke="rgba(0, 0, 255, 0.4)" stroke-width="6" stroke-linecap="round"/><line x1="200" y1="40" x2="200" y2="220" stroke="rgba(0, 0, 255, 0.4)" stroke-width="6" stroke-linecap="round"/><line x1="280" y1="100" x2="280" y2="220" stroke="rgba(0, 0, 255, 0.4)" stroke-width="6" stroke-linecap="round"/><line x1="440" y1="340" x2="440" y2="100" stroke="rgba(0, 0, 255, 0.4)" stroke-width="6" stroke-linecap="round"/><circle cx="120" cy="40" r="5" fill="#333333" stroke="#000000"/><text x="120" y="59" font-size="9.600000000000001" fill="#666666" text-anchor="middle" font-family="monospace">in[0]</text><circle cx="200" cy="40" r="15" fill="#6495ED" stroke="#1E3A8A" stroke-width="1.5"/><circle cx="120" cy="100" r="5" fill="#333333" stroke="#000000"/><text x="120" y="119" font-size="9.600000000000001" fill="#666666" text-anchor="middle" font-family="monospace">in[1]</text><circle cx="280" cy="100" r="15" fill="#6495ED" stroke="#1E3A8A" stroke-width="1.5"/><circle cx="120" cy="160" r="5" fill="#333333" stroke="#000000"/><text x="120" y="179" font-size="9.600000000000001" fill="#666666" text-anchor="middle" font-family="monospace">in[2]</text><circle cx="440" cy="160" r="15" fill="#6495ED" stroke="#1E3A8A" stroke-width="1.5"/><circle cx="120" cy="220" r="15" fill="#FF6B6B" stroke="#8B0000" stroke-width="1.5"/><circle cx="200" cy="220" r="15" fill="#FF6B6B" stroke="#8B0000" stroke-width="1.5"/><circle cx="120" cy="280" r="15" fill="#FF6B6B" stroke="#8B0000" stroke-width="1.5"/><circle cx="360" cy="280" r="15" fill="#FF6B6B" stroke="#8B0000" stroke-width="1.5"/><circle cx="120" cy="340" r="15" fill="#FF6B6B" stroke="#8B0000" stroke-width="1.5"/><circle cx="280" cy="340" r="15" fill="#FF6B6B" stroke="#8B0000" stroke-width="1.5"/><circle cx="120" cy="400" r="15" fill="#FF6B6B" stroke="#8B0000" stroke-width="1.5"/><circle cx="520" cy="400" r="15" fill="#FF6B6B" stroke="#8B0000" stroke-width="1.5"/><circle cx="280" cy="40" r="15" fill="#6495ED" stroke="#1E3A8A" stroke-width="1.5"/><circle cx="280" cy="220" r="15" fill="#FF6B6B" stroke="#8B0000" stroke-width="1.5"/><circle cx="680" cy="40" r="5" fill="#333333" stroke="#000000"/><text x="680" y="59" font-size="9.600000000000001" fill="#666666" text-anchor="middle" font-family="monospace">out[0]</text><circle cx="440" cy="340" r="15" fill="#FF6B6B" stroke="#8B0000" stroke-width="1.5"/><circle cx="360" cy="100" r="15" fill="#6495ED" stroke="#1E3A8A" stroke-width="1.5"/><circle cx="360" cy="220" r="15" fill="#FF6B6B" stroke="#8B0000" stroke-width="1.5"/><circle cx="440" cy="100" r="15" fill="#6495ED" stroke="#1E3A8A" stroke-width="1.5"/><circle cx="440" cy="280" r="15" fill="#FF6B6B" stroke="#8B0000" stroke-width="1.5"/><circle cx="520" cy="100" r="15" fill="#6495ED" stroke="#1E3A8A" stroke-width="1.5"/><circle cx="520" cy="340" r="15" fill="#FF6B6B" stroke="#8B0000" stroke-width="1.5"/><circle cx="680" cy="100" r="5" fill="#333333" stroke="#000000"/><text x="680" y="119" font-size="9.600000000000001" fill="#666666" text-anchor="middle" font-family="monospace">out[1]</text><circle cx="600" cy="400" r="15" fill="#FF6B6B" stroke="#8B0000" stroke-width="1.5"/><circle cx="600" cy="160" r="15" fill="#6495ED" stroke="#1E3A8A" stroke-width="1.5"/><circle cx="520" cy="280" r="15" fill="#FF6B6B" stroke="#8B0000" stroke-width="1.5"/><circle cx="680" cy="160" r="5" fill="#333333" stroke="#000000"/><text x="680" y="179" font-size="9.600000000000001" fill="#666666" text-anchor="middle" font-family="monospace">out[2]</text><circle cx="680" cy="400" r="15" fill="#FF6B6B" stroke="#8B0000" stroke-width="1.5"/></svg>
